<?xml version="1.0" encoding="UTF-8"?>
<svg xmlns="http://www.w3.org/2000/svg" xmlns:xlink="http://www.w3.org/1999/xlink" width="375pt" height="374.999991pt" viewBox="0 0 375 374.999991" version="1.2">
<defs>
<filter id="alpha" filterUnits="objectBoundingBox" x="0%" y="0%" width="100%" height="100%">
  <feColorMatrix type="matrix" in="SourceGraphic" values="0 0 0 0 1 0 0 0 0 1 0 0 0 0 1 0 0 0 1 0"/>
</filter>
<mask id="mask0">
  <g filter="url(#alpha)">
<rect x="0" y="0" width="375" height="374.999991" style="fill:rgb(0%,0%,0%);fill-opacity:0.7765;stroke:none;"/>
  </g>
</mask>
<clipPath id="clip2">
  <path d="M 0 0.839844 L 185.761719 0.839844 L 185.761719 240 L 0 240 Z M 0 0.839844 "/>
</clipPath>
<clipPath id="clip1">
  <rect x="0" y="0" width="186" height="240"/>
</clipPath>
<g id="surface5" clip-path="url(#clip1)">
<g clip-path="url(#clip2)" clip-rule="nonzero">
<path style=" stroke:none;fill-rule:nonzero;fill:rgb(27.839661%,52.549744%,54.119873%);fill-opacity:1;" d="M 45.835938 0.988281 C 43.550781 0.988281 41.265625 1.042969 38.980469 1.15625 C 36.699219 1.269531 34.417969 1.4375 32.144531 1.660156 C 29.867188 1.882812 27.597656 2.164062 25.339844 2.5 C 23.078125 2.835938 20.824219 3.226562 18.582031 3.671875 C 16.339844 4.117188 14.109375 4.617188 11.894531 5.175781 C 9.675781 5.730469 7.472656 6.339844 5.285156 7.003906 C 3.097656 7.667969 0.925781 8.382812 -1.226562 9.152344 C -3.378906 9.921875 -5.511719 10.746094 -7.621094 11.621094 C -9.734375 12.496094 -11.824219 13.421875 -13.890625 14.398438 C -15.957031 15.378906 -18 16.40625 -20.015625 17.480469 C -22.03125 18.558594 -24.019531 19.6875 -25.980469 20.863281 C -27.941406 22.039062 -29.871094 23.261719 -31.773438 24.53125 C -33.671875 25.800781 -35.542969 27.117188 -37.378906 28.476562 C -39.214844 29.839844 -41.015625 31.246094 -42.785156 32.695312 C -44.550781 34.148438 -46.28125 35.640625 -47.976562 37.175781 C -49.667969 38.710938 -51.324219 40.285156 -52.941406 41.902344 C -54.558594 43.519531 -56.132812 45.175781 -57.667969 46.867188 C -59.203125 48.5625 -60.695312 50.292969 -62.148438 52.058594 C -63.597656 53.828125 -65.003906 55.628906 -66.367188 57.464844 C -67.726562 59.300781 -69.042969 61.167969 -70.3125 63.070312 C -71.582031 64.972656 -72.804688 66.902344 -73.980469 68.863281 C -75.15625 70.824219 -76.285156 72.8125 -77.359375 74.828125 C -78.4375 76.84375 -79.464844 78.886719 -80.445312 80.953125 C -81.421875 83.019531 -82.347656 85.109375 -83.222656 87.222656 C -84.097656 89.332031 -84.917969 91.464844 -85.691406 93.617188 C -86.460938 95.769531 -87.175781 97.941406 -87.839844 100.128906 C -88.503906 102.316406 -89.113281 104.519531 -89.667969 106.738281 C -90.222656 108.953125 -90.726562 111.183594 -91.171875 113.425781 C -91.617188 115.667969 -92.007812 117.921875 -92.34375 120.179688 C -92.679688 122.441406 -92.957031 124.710938 -93.183594 126.984375 C -93.40625 129.261719 -93.574219 131.539062 -93.6875 133.824219 C -93.800781 136.109375 -93.855469 138.390625 -93.855469 140.679688 C -93.855469 142.964844 -93.800781 145.25 -93.6875 147.53125 C -93.574219 149.816406 -93.40625 152.09375 -93.183594 154.371094 C -92.957031 156.644531 -92.679688 158.914062 -92.34375 161.175781 C -92.007812 163.4375 -91.617188 165.6875 -91.171875 167.929688 C -90.726562 170.171875 -90.222656 172.402344 -89.667969 174.621094 C -89.113281 176.839844 -88.503906 179.039062 -87.839844 181.226562 C -87.175781 183.417969 -86.460938 185.585938 -85.691406 187.738281 C -84.917969 189.890625 -84.097656 192.023438 -83.222656 194.136719 C -82.347656 196.246094 -81.421875 198.335938 -80.445312 200.402344 C -79.464844 202.46875 -78.4375 204.511719 -77.359375 206.527344 C -76.285156 208.542969 -75.15625 210.53125 -73.980469 212.492188 C -72.804688 214.453125 -71.582031 216.386719 -70.3125 218.285156 C -69.042969 220.1875 -67.726562 222.054688 -66.367188 223.890625 C -65.003906 225.726562 -63.597656 227.53125 -62.148438 229.296875 C -60.695312 231.0625 -59.203125 232.792969 -57.667969 234.488281 C -56.132812 236.183594 -54.558594 237.835938 -52.941406 239.453125 C -51.324219 241.070312 -49.667969 242.648438 -47.976562 244.183594 C -46.28125 245.71875 -44.550781 247.210938 -42.785156 248.660156 C -41.015625 250.109375 -39.214844 251.515625 -37.378906 252.878906 C -35.542969 254.242188 -33.671875 255.554688 -31.773438 256.828125 C -29.871094 258.097656 -27.941406 259.320312 -25.980469 260.496094 C -24.019531 261.671875 -22.03125 262.796875 -20.015625 263.875 C -18 264.953125 -15.957031 265.980469 -13.890625 266.957031 C -11.824219 267.933594 -9.734375 268.859375 -7.621094 269.734375 C -5.511719 270.609375 -3.378906 271.433594 -1.226562 272.203125 C 0.925781 272.972656 3.097656 273.691406 5.285156 274.355469 C 7.472656 275.015625 9.675781 275.625 11.894531 276.183594 C 14.109375 276.738281 16.339844 277.238281 18.582031 277.683594 C 20.824219 278.128906 23.078125 278.519531 25.339844 278.855469 C 27.597656 279.191406 29.867188 279.472656 32.144531 279.695312 C 34.417969 279.921875 36.699219 280.089844 38.980469 280.199219 C 41.265625 280.3125 43.550781 280.367188 45.835938 280.367188 C 48.121094 280.367188 50.40625 280.3125 52.6875 280.199219 C 54.972656 280.089844 57.253906 279.921875 59.527344 279.695312 C 61.800781 279.472656 64.070312 279.191406 66.332031 278.855469 C 68.59375 278.519531 70.84375 278.128906 73.085938 277.683594 C 75.328125 277.238281 77.558594 276.738281 79.777344 276.183594 C 81.996094 275.625 84.199219 275.015625 86.386719 274.355469 C 88.574219 273.691406 90.742188 272.972656 92.894531 272.203125 C 95.046875 271.433594 97.179688 270.609375 99.292969 269.734375 C 101.40625 268.859375 103.492188 267.933594 105.558594 266.957031 C 107.628906 265.980469 109.667969 264.953125 111.683594 263.875 C 113.699219 262.796875 115.6875 261.671875 117.648438 260.496094 C 119.609375 259.320312 121.542969 258.097656 123.441406 256.828125 C 125.34375 255.554688 127.210938 254.242188 129.046875 252.878906 C 130.882812 251.515625 132.6875 250.109375 134.453125 248.660156 C 136.222656 247.210938 137.953125 245.71875 139.644531 244.183594 C 141.339844 242.648438 142.996094 241.070312 144.609375 239.453125 C 146.226562 237.835938 147.804688 236.183594 149.339844 234.488281 C 150.875 232.792969 152.367188 231.0625 153.816406 229.296875 C 155.265625 227.53125 156.671875 225.726562 158.035156 223.890625 C 159.398438 222.054688 160.714844 220.1875 161.984375 218.285156 C 163.253906 216.386719 164.476562 214.453125 165.652344 212.492188 C 166.828125 210.53125 167.953125 208.542969 169.03125 206.527344 C 170.109375 204.511719 171.136719 202.46875 172.113281 200.402344 C 173.089844 198.335938 174.015625 196.246094 174.890625 194.136719 C 175.765625 192.023438 176.589844 189.890625 177.359375 187.738281 C 178.128906 185.585938 178.847656 183.417969 179.511719 181.226562 C 180.175781 179.039062 180.785156 176.839844 181.339844 174.621094 C 181.894531 172.402344 182.394531 170.171875 182.839844 167.929688 C 183.289062 165.6875 183.679688 163.4375 184.011719 161.175781 C 184.347656 158.914062 184.628906 156.644531 184.851562 154.371094 C 185.078125 152.09375 185.246094 149.816406 185.355469 147.53125 C 185.46875 145.25 185.527344 142.964844 185.527344 140.679688 C 185.527344 138.390625 185.46875 136.109375 185.355469 133.824219 C 185.246094 131.539062 185.078125 129.261719 184.851562 126.984375 C 184.628906 124.710938 184.347656 122.441406 184.011719 120.179688 C 183.679688 117.921875 183.289062 115.667969 182.839844 113.425781 C 182.394531 111.183594 181.894531 108.953125 181.339844 106.738281 C 180.785156 104.519531 180.175781 102.316406 179.511719 100.128906 C 178.847656 97.941406 178.128906 95.769531 177.359375 93.617188 C 176.589844 91.464844 175.765625 89.332031 174.890625 87.222656 C 174.015625 85.109375 173.089844 83.019531 172.113281 80.953125 C 171.136719 78.886719 170.109375 76.84375 169.03125 74.828125 C 167.953125 72.8125 166.828125 70.824219 165.652344 68.863281 C 164.476562 66.902344 163.253906 64.972656 161.984375 63.070312 C 160.714844 61.167969 159.398438 59.300781 158.035156 57.464844 C 156.671875 55.628906 155.265625 53.828125 153.816406 52.058594 C 152.367188 50.292969 150.875 48.5625 149.339844 46.867188 C 147.804688 45.175781 146.226562 43.519531 144.609375 41.902344 C 142.996094 40.285156 141.339844 38.710938 139.644531 37.175781 C 137.953125 35.640625 136.222656 34.148438 134.453125 32.695312 C 132.6875 31.246094 130.882812 29.839844 129.046875 28.476562 C 127.210938 27.117188 125.34375 25.800781 123.441406 24.53125 C 121.542969 23.261719 119.609375 22.039062 117.648438 20.863281 C 115.6875 19.6875 113.699219 18.558594 111.683594 17.480469 C 109.667969 16.40625 107.628906 15.378906 105.558594 14.398438 C 103.492188 13.421875 101.40625 12.496094 99.292969 11.621094 C 97.179688 10.746094 95.046875 9.921875 92.894531 9.152344 C 90.742188 8.382812 88.574219 7.667969 86.386719 7.003906 C 84.199219 6.339844 81.996094 5.730469 79.777344 5.175781 C 77.558594 4.617188 75.328125 4.117188 73.085938 3.671875 C 70.84375 3.226562 68.59375 2.835938 66.332031 2.5 C 64.070312 2.164062 61.800781 1.882812 59.527344 1.660156 C 57.253906 1.4375 54.972656 1.269531 52.6875 1.15625 C 50.40625 1.042969 48.121094 0.988281 45.835938 0.988281 Z M 45.835938 0.988281 "/>
</g>
</g>
<mask id="mask1">
  <g filter="url(#alpha)">
<rect x="0" y="0" width="375" height="374.999991" style="fill:rgb(0%,0%,0%);fill-opacity:0.7765;stroke:none;"/>
  </g>
</mask>
<clipPath id="clip4">
  <path d="M 0.519531 0 L 208 0 L 208 164.640625 L 0.519531 164.640625 Z M 0.519531 0 "/>
</clipPath>
<clipPath id="clip3">
  <rect x="0" y="0" width="208" height="165"/>
</clipPath>
<g id="surface8" clip-path="url(#clip3)">
<g clip-path="url(#clip4)" clip-rule="nonzero">
<path style=" stroke:none;fill-rule:nonzero;fill:rgb(55.688477%,15.689087%,36.859131%);fill-opacity:1;" d="M 140.339844 -114.960938 C 138.054688 -114.960938 135.769531 -114.90625 133.488281 -114.792969 C 131.203125 -114.679688 128.925781 -114.511719 126.648438 -114.289062 C 124.375 -114.066406 122.105469 -113.785156 119.84375 -113.449219 C 117.582031 -113.113281 115.332031 -112.722656 113.089844 -112.277344 C 110.847656 -111.832031 108.617188 -111.332031 106.398438 -110.777344 C 104.183594 -110.21875 101.980469 -109.609375 99.792969 -108.945312 C 97.605469 -108.285156 95.433594 -107.566406 93.28125 -106.796875 C 91.128906 -106.027344 88.996094 -105.203125 86.882812 -104.328125 C 84.773438 -103.453125 82.683594 -102.527344 80.617188 -101.550781 C 78.550781 -100.574219 76.507812 -99.546875 74.492188 -98.46875 C 72.476562 -97.390625 70.488281 -96.261719 68.527344 -95.089844 C 66.566406 -93.914062 64.632812 -92.691406 62.734375 -91.421875 C 60.832031 -90.148438 58.964844 -88.832031 57.128906 -87.472656 C 55.292969 -86.109375 53.488281 -84.703125 51.722656 -83.253906 C 49.957031 -81.804688 48.226562 -80.3125 46.53125 -78.777344 C 44.835938 -77.238281 43.183594 -75.664062 41.566406 -74.046875 C 39.949219 -72.429688 38.371094 -70.777344 36.835938 -69.082031 C 35.300781 -67.386719 33.808594 -65.65625 32.359375 -63.890625 C 30.910156 -62.125 29.503906 -60.320312 28.140625 -58.484375 C 26.777344 -56.648438 25.464844 -54.78125 24.191406 -52.878906 C 22.921875 -50.980469 21.699219 -49.046875 20.523438 -47.085938 C 19.351562 -45.125 18.222656 -43.136719 17.144531 -41.121094 C 16.066406 -39.105469 15.039062 -37.0625 14.0625 -34.996094 C 13.085938 -32.929688 12.160156 -30.839844 11.285156 -28.730469 C 10.410156 -26.617188 9.585938 -24.484375 8.816406 -22.332031 C 8.046875 -20.179688 7.328125 -18.007812 6.667969 -15.820312 C 6.003906 -13.632812 5.394531 -11.429688 4.835938 -9.214844 C 4.28125 -6.996094 3.78125 -4.765625 3.335938 -2.523438 C 2.890625 -0.28125 2.5 1.96875 2.164062 4.230469 C 1.828125 6.492188 1.546875 8.761719 1.324219 11.035156 C 1.101562 13.3125 0.929688 15.589844 0.820312 17.875 C 0.707031 20.15625 0.652344 22.441406 0.652344 24.726562 C 0.652344 27.015625 0.707031 29.300781 0.820312 31.582031 C 0.929688 33.867188 1.101562 36.144531 1.324219 38.421875 C 1.546875 40.695312 1.828125 42.964844 2.164062 45.226562 C 2.5 47.488281 2.890625 49.738281 3.335938 51.980469 C 3.78125 54.222656 4.28125 56.453125 4.835938 58.671875 C 5.394531 60.886719 6.003906 63.089844 6.667969 65.277344 C 7.328125 67.464844 8.046875 69.636719 8.816406 71.789062 C 9.585938 73.941406 10.410156 76.074219 11.285156 78.1875 C 12.160156 80.296875 13.085938 82.386719 14.0625 84.453125 C 15.039062 86.519531 16.066406 88.5625 17.144531 90.578125 C 18.222656 92.59375 19.351562 94.582031 20.523438 96.542969 C 21.699219 98.503906 22.921875 100.433594 24.191406 102.335938 C 25.464844 104.238281 26.777344 106.105469 28.140625 107.941406 C 29.503906 109.777344 30.910156 111.578125 32.359375 113.347656 C 33.808594 115.113281 35.300781 116.84375 36.835938 118.539062 C 38.371094 120.234375 39.949219 121.886719 41.566406 123.503906 C 43.183594 125.121094 44.835938 126.695312 46.53125 128.230469 C 48.226562 129.765625 49.957031 131.261719 51.722656 132.710938 C 53.488281 134.160156 55.292969 135.566406 57.128906 136.929688 C 58.964844 138.289062 60.832031 139.605469 62.734375 140.875 C 64.632812 142.148438 66.566406 143.371094 68.527344 144.542969 C 70.488281 145.71875 72.476562 146.847656 74.492188 147.925781 C 76.507812 149.003906 78.550781 150.03125 80.617188 151.007812 C 82.683594 151.984375 84.773438 152.910156 86.882812 153.785156 C 88.996094 154.660156 91.128906 155.484375 93.28125 156.253906 C 95.433594 157.023438 97.605469 157.738281 99.792969 158.402344 C 101.980469 159.066406 104.183594 159.675781 106.398438 160.234375 C 108.617188 160.789062 110.847656 161.289062 113.089844 161.734375 C 115.332031 162.179688 117.582031 162.570312 119.84375 162.90625 C 122.105469 163.242188 124.375 163.523438 126.648438 163.746094 C 128.925781 163.96875 131.203125 164.136719 133.488281 164.25 C 135.769531 164.363281 138.054688 164.417969 140.339844 164.417969 C 142.628906 164.417969 144.914062 164.363281 147.195312 164.25 C 149.480469 164.136719 151.757812 163.96875 154.035156 163.746094 C 156.308594 163.523438 158.578125 163.242188 160.839844 162.90625 C 163.101562 162.570312 165.351562 162.179688 167.59375 161.734375 C 169.835938 161.289062 172.066406 160.789062 174.285156 160.230469 C 176.5 159.675781 178.703125 159.066406 180.890625 158.402344 C 183.078125 157.738281 185.25 157.023438 187.402344 156.253906 C 189.554688 155.484375 191.6875 154.660156 193.796875 153.785156 C 195.910156 152.910156 198 151.984375 200.066406 151.007812 C 202.132812 150.03125 204.175781 149.003906 206.191406 147.925781 C 208.207031 146.847656 210.195312 145.71875 212.15625 144.542969 C 214.117188 143.371094 216.046875 142.148438 217.949219 140.875 C 219.851562 139.605469 221.71875 138.289062 223.554688 136.929688 C 225.390625 135.566406 227.191406 134.160156 228.960938 132.710938 C 230.726562 131.261719 232.457031 129.765625 234.152344 128.230469 C 235.847656 126.695312 237.5 125.121094 239.117188 123.503906 C 240.734375 121.886719 242.308594 120.234375 243.84375 118.539062 C 245.378906 116.84375 246.875 115.113281 248.324219 113.347656 C 249.773438 111.578125 251.179688 109.777344 252.542969 107.941406 C 253.902344 106.105469 255.21875 104.238281 256.488281 102.335938 C 257.761719 100.433594 258.984375 98.503906 260.15625 96.542969 C 261.332031 94.582031 262.460938 92.59375 263.539062 90.578125 C 264.613281 88.5625 265.644531 86.519531 266.621094 84.453125 C 267.597656 82.386719 268.523438 80.296875 269.398438 78.1875 C 270.273438 76.074219 271.097656 73.941406 271.867188 71.789062 C 272.636719 69.636719 273.351562 67.464844 274.015625 65.277344 C 274.679688 63.089844 275.289062 60.886719 275.84375 58.671875 C 276.402344 56.453125 276.902344 54.222656 277.347656 51.980469 C 277.792969 49.738281 278.183594 47.488281 278.519531 45.226562 C 278.855469 42.964844 279.136719 40.695312 279.359375 38.421875 C 279.582031 36.144531 279.75 33.867188 279.863281 31.582031 C 279.976562 29.300781 280.03125 27.015625 280.03125 24.726562 C 280.03125 22.441406 279.976562 20.15625 279.863281 17.875 C 279.75 15.589844 279.582031 13.3125 279.359375 11.035156 C 279.136719 8.761719 278.855469 6.492188 278.519531 4.230469 C 278.183594 1.96875 277.792969 -0.28125 277.347656 -2.523438 C 276.902344 -4.765625 276.402344 -6.996094 275.84375 -9.214844 C 275.289062 -11.429688 274.679688 -13.632812 274.015625 -15.820312 C 273.351562 -18.007812 272.636719 -20.179688 271.867188 -22.332031 C 271.097656 -24.484375 270.273438 -26.617188 269.398438 -28.730469 C 268.523438 -30.839844 267.597656 -32.929688 266.621094 -34.996094 C 265.644531 -37.0625 264.613281 -39.105469 263.539062 -41.121094 C 262.460938 -43.136719 261.332031 -45.125 260.15625 -47.085938 C 258.984375 -49.046875 257.761719 -50.980469 256.488281 -52.878906 C 255.21875 -54.78125 253.902344 -56.648438 252.542969 -58.484375 C 251.179688 -60.320312 249.773438 -62.125 248.324219 -63.890625 C 246.875 -65.65625 245.378906 -67.386719 243.84375 -69.082031 C 242.308594 -70.777344 240.734375 -72.429688 239.117188 -74.046875 C 237.5 -75.664062 235.847656 -77.238281 234.152344 -78.777344 C 232.457031 -80.3125 230.726562 -81.804688 228.960938 -83.253906 C 227.191406 -84.703125 225.390625 -86.109375 223.554688 -87.472656 C 221.71875 -88.832031 219.851562 -90.148438 217.949219 -91.421875 C 216.046875 -92.691406 214.117188 -93.914062 212.15625 -95.089844 C 210.195312 -96.261719 208.207031 -97.390625 206.191406 -98.46875 C 204.175781 -99.546875 202.132812 -100.574219 200.066406 -101.550781 C 198 -102.527344 195.910156 -103.453125 193.796875 -104.328125 C 191.6875 -105.203125 189.554688 -106.027344 187.402344 -106.796875 C 185.25 -107.566406 183.078125 -108.285156 180.890625 -108.945312 C 178.703125 -109.609375 176.5 -110.21875 174.285156 -110.777344 C 172.066406 -111.332031 169.835938 -111.832031 167.59375 -112.277344 C 165.351562 -112.722656 163.101562 -113.113281 160.839844 -113.449219 C 158.578125 -113.785156 156.308594 -114.066406 154.035156 -114.289062 C 151.757812 -114.511719 149.480469 -114.679688 147.195312 -114.792969 C 144.914062 -114.90625 142.628906 -114.960938 140.339844 -114.960938 Z M 140.339844 -114.960938 "/>
</g>
</g>
<mask id="mask2">
  <g filter="url(#alpha)">
<rect x="0" y="0" width="375" height="374.999991" style="fill:rgb(0%,0%,0%);fill-opacity:0.7765;stroke:none;"/>
  </g>
</mask>
<clipPath id="clip6">
  <path d="M 0.519531 0.480469 L 124 0.480469 L 124 123 L 0.519531 123 Z M 0.519531 0.480469 "/>
</clipPath>
<clipPath id="clip5">
  <rect x="0" y="0" width="124" height="123"/>
</clipPath>
<g id="surface11" clip-path="url(#clip5)">
<g clip-path="url(#clip6)" clip-rule="nonzero">
<path style=" stroke:none;fill-rule:nonzero;fill:rgb(27.839661%,52.549744%,54.119873%);fill-opacity:1;" d="M 140.375 0.515625 C 138.089844 0.515625 135.804688 0.574219 133.519531 0.683594 C 131.238281 0.796875 128.957031 0.964844 126.683594 1.1875 C 124.40625 1.414062 122.140625 1.691406 119.878906 2.027344 C 117.617188 2.363281 115.363281 2.753906 113.121094 3.199219 C 110.878906 3.648438 108.652344 4.148438 106.433594 4.703125 C 104.214844 5.257812 102.011719 5.867188 99.824219 6.53125 C 97.636719 7.195312 95.46875 7.914062 93.316406 8.683594 C 91.160156 9.453125 89.03125 10.273438 86.917969 11.148438 C 84.804688 12.023438 82.714844 12.949219 80.648438 13.929688 C 78.582031 14.90625 76.542969 15.933594 74.523438 17.011719 C 72.507812 18.089844 70.519531 19.214844 68.558594 20.390625 C 66.597656 21.566406 64.667969 22.789062 62.765625 24.058594 C 60.867188 25.328125 58.996094 26.644531 57.160156 28.007812 C 55.324219 29.367188 53.523438 30.773438 51.757812 32.226562 C 49.988281 33.675781 48.257812 35.167969 46.5625 36.703125 C 44.871094 38.238281 43.214844 39.816406 41.597656 41.429688 C 39.980469 43.046875 38.40625 44.703125 36.871094 46.398438 C 35.335938 48.089844 33.84375 49.820312 32.394531 51.589844 C 30.941406 53.355469 29.535156 55.15625 28.175781 56.992188 C 26.8125 58.828125 25.496094 60.699219 24.226562 62.597656 C 22.957031 64.5 21.734375 66.429688 20.558594 68.390625 C 19.382812 70.351562 18.257812 72.339844 17.179688 74.359375 C 16.101562 76.375 15.074219 78.414062 14.097656 80.480469 C 13.117188 82.546875 12.191406 84.636719 11.316406 86.75 C 10.441406 88.863281 9.621094 90.996094 8.851562 93.148438 C 8.078125 95.300781 7.363281 97.46875 6.699219 99.65625 C 6.035156 101.84375 5.425781 104.046875 4.871094 106.265625 C 4.316406 108.484375 3.816406 110.710938 3.367188 112.953125 C 2.921875 115.195312 2.53125 117.449219 2.195312 119.710938 C 1.859375 121.972656 1.582031 124.238281 1.355469 126.515625 C 1.132812 128.789062 0.964844 131.070312 0.851562 133.351562 C 0.742188 135.636719 0.683594 137.921875 0.683594 140.207031 C 0.683594 142.492188 0.742188 144.777344 0.851562 147.0625 C 0.964844 149.34375 1.132812 151.625 1.355469 153.898438 C 1.582031 156.175781 1.859375 158.441406 2.195312 160.703125 C 2.53125 162.964844 2.921875 165.21875 3.367188 167.460938 C 3.816406 169.703125 4.316406 171.929688 4.871094 174.148438 C 5.425781 176.367188 6.035156 178.570312 6.699219 180.757812 C 7.363281 182.945312 8.078125 185.113281 8.851562 187.265625 C 9.621094 189.417969 10.441406 191.550781 11.316406 193.664062 C 12.191406 195.777344 13.117188 197.867188 14.097656 199.933594 C 15.074219 202 16.101562 204.039062 17.179688 206.058594 C 18.257812 208.074219 19.382812 210.0625 20.558594 212.023438 C 21.734375 213.984375 22.957031 215.914062 24.226562 217.816406 C 25.496094 219.714844 26.8125 221.585938 28.175781 223.421875 C 29.535156 225.257812 30.941406 227.058594 32.394531 228.824219 C 33.84375 230.59375 35.335938 232.324219 36.871094 234.015625 C 38.40625 235.710938 39.980469 237.367188 41.597656 238.984375 C 43.214844 240.601562 44.871094 242.175781 46.5625 243.710938 C 48.257812 245.246094 49.988281 246.738281 51.757812 248.1875 C 53.523438 249.640625 55.324219 251.046875 57.160156 252.40625 C 58.996094 253.769531 60.867188 255.085938 62.765625 256.355469 C 64.667969 257.625 66.597656 258.847656 68.558594 260.023438 C 70.519531 261.199219 72.507812 262.324219 74.523438 263.402344 C 76.542969 264.480469 78.582031 265.507812 80.648438 266.484375 C 82.714844 267.464844 84.804688 268.390625 86.917969 269.265625 C 89.03125 270.140625 91.160156 270.960938 93.316406 271.730469 C 95.46875 272.5 97.636719 273.21875 99.824219 273.882812 C 102.011719 274.546875 104.214844 275.15625 106.433594 275.710938 C 108.652344 276.265625 110.878906 276.765625 113.121094 277.214844 C 115.363281 277.660156 117.617188 278.050781 119.878906 278.386719 C 122.140625 278.722656 124.40625 279 126.683594 279.226562 C 128.957031 279.449219 131.238281 279.617188 133.519531 279.730469 C 135.804688 279.839844 138.089844 279.898438 140.375 279.898438 C 142.660156 279.898438 144.945312 279.839844 147.230469 279.730469 C 149.511719 279.617188 151.792969 279.449219 154.066406 279.226562 C 156.34375 279 158.609375 278.722656 160.871094 278.386719 C 163.132812 278.050781 165.386719 277.660156 167.628906 277.214844 C 169.871094 276.765625 172.097656 276.265625 174.316406 275.710938 C 176.535156 275.15625 178.738281 274.546875 180.925781 273.882812 C 183.113281 273.21875 185.28125 272.5 187.433594 271.730469 C 189.585938 270.960938 191.71875 270.140625 193.832031 269.265625 C 195.945312 268.390625 198.035156 267.464844 200.101562 266.484375 C 202.167969 265.507812 204.207031 264.480469 206.222656 263.402344 C 208.242188 262.324219 210.230469 261.199219 212.191406 260.023438 C 214.152344 258.847656 216.082031 257.625 217.984375 256.355469 C 219.882812 255.085938 221.753906 253.769531 223.589844 252.40625 C 225.425781 251.046875 227.226562 249.640625 228.992188 248.1875 C 230.761719 246.738281 232.492188 245.246094 234.183594 243.710938 C 235.878906 242.175781 237.535156 240.601562 239.152344 238.984375 C 240.765625 237.367188 242.34375 235.710938 243.878906 234.015625 C 245.414062 232.324219 246.90625 230.59375 248.355469 228.824219 C 249.808594 227.058594 251.214844 225.257812 252.574219 223.421875 C 253.9375 221.585938 255.253906 219.714844 256.523438 217.816406 C 257.792969 215.914062 259.015625 213.984375 260.191406 212.023438 C 261.367188 210.0625 262.492188 208.074219 263.570312 206.058594 C 264.648438 204.039062 265.675781 202 266.652344 199.933594 C 267.632812 197.867188 268.558594 195.777344 269.433594 193.664062 C 270.308594 191.550781 271.128906 189.417969 271.898438 187.265625 C 272.667969 185.113281 273.386719 182.945312 274.050781 180.757812 C 274.714844 178.570312 275.324219 176.367188 275.878906 174.148438 C 276.433594 171.929688 276.933594 169.703125 277.382812 167.460938 C 277.828125 165.21875 278.21875 162.964844 278.554688 160.703125 C 278.890625 158.441406 279.167969 156.175781 279.394531 153.898438 C 279.617188 151.625 279.785156 149.34375 279.898438 147.0625 C 280.007812 144.777344 280.066406 142.492188 280.066406 140.207031 C 280.066406 137.921875 280.007812 135.636719 279.898438 133.351562 C 279.785156 131.070312 279.617188 128.789062 279.394531 126.515625 C 279.167969 124.238281 278.890625 121.972656 278.554688 119.710938 C 278.21875 117.449219 277.828125 115.195312 277.382812 112.953125 C 276.933594 110.710938 276.433594 108.484375 275.878906 106.265625 C 275.324219 104.046875 274.714844 101.84375 274.050781 99.65625 C 273.386719 97.46875 272.667969 95.300781 271.898438 93.148438 C 271.128906 90.996094 270.308594 88.863281 269.433594 86.75 C 268.558594 84.636719 267.628906 82.546875 266.652344 80.480469 C 265.675781 78.414062 264.648438 76.375 263.570312 74.359375 C 262.492188 72.339844 261.367188 70.351562 260.191406 68.390625 C 259.015625 66.429688 257.792969 64.5 256.523438 62.597656 C 255.253906 60.699219 253.9375 58.828125 252.574219 56.992188 C 251.214844 55.15625 249.808594 53.355469 248.355469 51.589844 C 246.90625 49.820312 245.414062 48.089844 243.878906 46.398438 C 242.34375 44.703125 240.765625 43.046875 239.152344 41.429688 C 237.535156 39.816406 235.878906 38.238281 234.183594 36.703125 C 232.492188 35.167969 230.761719 33.675781 228.992188 32.226562 C 227.226562 30.773438 225.425781 29.367188 223.589844 28.007812 C 221.753906 26.644531 219.882812 25.328125 217.984375 24.058594 C 216.082031 22.789062 214.152344 21.566406 212.191406 20.390625 C 210.230469 19.214844 208.242188 18.089844 206.222656 17.011719 C 204.207031 15.933594 202.167969 14.90625 200.101562 13.929688 C 198.035156 12.949219 195.945312 12.023438 193.832031 11.148438 C 191.71875 10.273438 189.585938 9.453125 187.433594 8.683594 C 185.28125 7.914062 183.113281 7.195312 180.925781 6.53125 C 178.738281 5.867188 176.535156 5.257812 174.316406 4.703125 C 172.097656 4.148438 169.871094 3.648438 167.628906 3.199219 C 165.386719 2.753906 163.132812 2.363281 160.871094 2.027344 C 158.609375 1.691406 156.34375 1.414062 154.066406 1.1875 C 151.792969 0.964844 149.511719 0.796875 147.230469 0.683594 C 144.945312 0.574219 142.660156 0.515625 140.375 0.515625 Z M 140.375 0.515625 "/>
</g>
</g>
<mask id="mask3">
  <g filter="url(#alpha)">
<rect x="0" y="0" width="375" height="374.999991" style="fill:rgb(0%,0%,0%);fill-opacity:0.7765;stroke:none;"/>
  </g>
</mask>
<clipPath id="clip8">
  <path d="M 0 0 L 167.761719 0 L 167.761719 98.398438 L 0 98.398438 Z M 0 0 "/>
</clipPath>
<clipPath id="clip7">
  <rect x="0" y="0" width="168" height="99"/>
</clipPath>
<g id="surface14" clip-path="url(#clip7)">
<g clip-path="url(#clip8)" clip-rule="nonzero">
<path style=" stroke:none;fill-rule:nonzero;fill:rgb(55.688477%,15.689087%,36.859131%);fill-opacity:1;" d="M 27.960938 -181.117188 C 25.675781 -181.117188 23.390625 -181.0625 21.105469 -180.949219 C 18.824219 -180.839844 16.542969 -180.671875 14.269531 -180.445312 C 11.992188 -180.222656 9.726562 -179.941406 7.464844 -179.605469 C 5.203125 -179.269531 2.949219 -178.878906 0.707031 -178.433594 C -1.535156 -177.988281 -3.765625 -177.488281 -5.980469 -176.933594 C -8.199219 -176.375 -10.402344 -175.765625 -12.589844 -175.105469 C -14.777344 -174.441406 -16.945312 -173.722656 -19.101562 -172.953125 C -21.253906 -172.183594 -23.382812 -171.359375 -25.496094 -170.484375 C -27.609375 -169.609375 -29.699219 -168.683594 -31.765625 -167.707031 C -33.832031 -166.730469 -35.871094 -165.703125 -37.890625 -164.625 C -39.90625 -163.546875 -41.894531 -162.421875 -43.855469 -161.246094 C -45.816406 -160.070312 -47.746094 -158.847656 -49.648438 -157.578125 C -51.546875 -156.304688 -53.417969 -154.992188 -55.253906 -153.628906 C -57.089844 -152.265625 -58.890625 -150.859375 -60.65625 -149.410156 C -62.425781 -147.960938 -64.15625 -146.46875 -65.851562 -144.933594 C -67.542969 -143.398438 -69.199219 -141.820312 -70.816406 -140.203125 C -72.433594 -138.585938 -74.007812 -136.933594 -75.542969 -135.238281 C -77.078125 -133.542969 -78.570312 -131.8125 -80.023438 -130.046875 C -81.472656 -128.28125 -82.878906 -126.476562 -84.238281 -124.640625 C -85.601562 -122.804688 -86.917969 -120.9375 -88.1875 -119.035156 C -89.457031 -117.136719 -90.679688 -115.203125 -91.855469 -113.242188 C -93.03125 -111.28125 -94.15625 -109.292969 -95.234375 -107.277344 C -96.3125 -105.261719 -97.339844 -103.21875 -98.316406 -101.152344 C -99.296875 -99.085938 -100.222656 -96.996094 -101.097656 -94.886719 C -101.972656 -92.773438 -102.792969 -90.640625 -103.5625 -88.488281 C -104.335938 -86.335938 -105.050781 -84.167969 -105.714844 -81.976562 C -106.378906 -79.789062 -106.988281 -77.589844 -107.542969 -75.371094 C -108.097656 -73.152344 -108.601562 -70.921875 -109.046875 -68.679688 C -109.492188 -66.4375 -109.882812 -64.1875 -110.21875 -61.925781 C -110.554688 -59.664062 -110.832031 -57.394531 -111.058594 -55.121094 C -111.28125 -52.84375 -111.449219 -50.566406 -111.5625 -48.28125 C -111.671875 -46 -111.730469 -43.714844 -111.730469 -41.429688 C -111.730469 -39.140625 -111.671875 -36.859375 -111.5625 -34.574219 C -111.449219 -32.289062 -111.28125 -30.011719 -111.058594 -27.734375 C -110.832031 -25.460938 -110.554688 -23.191406 -110.21875 -20.929688 C -109.882812 -18.671875 -109.492188 -16.417969 -109.046875 -14.175781 C -108.601562 -11.933594 -108.097656 -9.703125 -107.542969 -7.488281 C -106.988281 -5.269531 -106.378906 -3.066406 -105.714844 -0.878906 C -105.050781 1.308594 -104.335938 3.480469 -103.5625 5.632812 C -102.792969 7.785156 -101.972656 9.917969 -101.097656 12.027344 C -100.222656 14.140625 -99.296875 16.230469 -98.316406 18.296875 C -97.339844 20.363281 -96.3125 22.40625 -95.234375 24.421875 C -94.15625 26.4375 -93.03125 28.425781 -91.855469 30.386719 C -90.679688 32.347656 -89.457031 34.277344 -88.1875 36.179688 C -86.917969 38.082031 -85.601562 39.949219 -84.238281 41.785156 C -82.878906 43.621094 -81.472656 45.421875 -80.023438 47.191406 C -78.570312 48.957031 -77.078125 50.6875 -75.542969 52.382812 C -74.007812 54.074219 -72.433594 55.730469 -70.816406 57.347656 C -69.199219 58.964844 -67.542969 60.539062 -65.851562 62.074219 C -64.15625 63.609375 -62.425781 65.101562 -60.65625 66.554688 C -58.890625 68.003906 -57.089844 69.410156 -55.253906 70.773438 C -53.417969 72.132812 -51.546875 73.449219 -49.648438 74.71875 C -47.746094 75.988281 -45.816406 77.210938 -43.855469 78.386719 C -41.894531 79.5625 -39.90625 80.691406 -37.890625 81.769531 C -35.871094 82.84375 -33.832031 83.871094 -31.765625 84.851562 C -29.699219 85.828125 -27.609375 86.753906 -25.496094 87.628906 C -23.382812 88.503906 -21.253906 89.324219 -19.101562 90.097656 C -16.945312 90.867188 -14.777344 91.582031 -12.589844 92.246094 C -10.402344 92.910156 -8.199219 93.519531 -5.980469 94.074219 C -3.765625 94.632812 -1.535156 95.132812 0.707031 95.578125 C 2.949219 96.023438 5.203125 96.414062 7.464844 96.75 C 9.726562 97.085938 11.992188 97.367188 14.269531 97.589844 C 16.542969 97.8125 18.824219 97.980469 21.105469 98.09375 C 23.390625 98.207031 25.675781 98.261719 27.960938 98.261719 C 30.246094 98.261719 32.53125 98.207031 34.816406 98.09375 C 37.097656 97.980469 39.378906 97.8125 41.652344 97.589844 C 43.929688 97.367188 46.195312 97.085938 48.457031 96.75 C 50.71875 96.414062 52.96875 96.023438 55.210938 95.578125 C 57.457031 95.132812 59.683594 94.632812 61.902344 94.074219 C 64.121094 93.519531 66.324219 92.910156 68.511719 92.246094 C 70.699219 91.582031 72.867188 90.867188 75.019531 90.097656 C 77.171875 89.324219 79.304688 88.503906 81.417969 87.628906 C 83.53125 86.753906 85.621094 85.828125 87.6875 84.851562 C 89.753906 83.871094 91.792969 82.84375 93.808594 81.769531 C 95.828125 80.691406 97.816406 79.5625 99.777344 78.386719 C 101.738281 77.210938 103.667969 75.988281 105.570312 74.71875 C 107.46875 73.449219 109.335938 72.132812 111.175781 70.773438 C 113.011719 69.410156 114.8125 68.003906 116.578125 66.554688 C 118.347656 65.101562 120.078125 63.609375 121.769531 62.074219 C 123.464844 60.539062 125.121094 58.964844 126.738281 57.347656 C 128.351562 55.730469 129.929688 54.074219 131.464844 52.382812 C 133 50.6875 134.492188 48.957031 135.941406 47.191406 C 137.394531 45.421875 138.800781 43.621094 140.160156 41.785156 C 141.523438 39.949219 142.839844 38.082031 144.109375 36.179688 C 145.378906 34.277344 146.601562 32.347656 147.777344 30.386719 C 148.953125 28.425781 150.078125 26.4375 151.15625 24.421875 C 152.234375 22.40625 153.261719 20.363281 154.238281 18.296875 C 155.214844 16.230469 156.144531 14.140625 157.019531 12.027344 C 157.894531 9.917969 158.714844 7.785156 159.484375 5.632812 C 160.253906 3.480469 160.972656 1.308594 161.636719 -0.878906 C 162.300781 -3.066406 162.910156 -5.269531 163.464844 -7.488281 C 164.019531 -9.703125 164.519531 -11.933594 164.96875 -14.175781 C 165.414062 -16.417969 165.804688 -18.671875 166.140625 -20.929688 C 166.472656 -23.191406 166.753906 -25.460938 166.976562 -27.734375 C 167.203125 -30.011719 167.371094 -32.289062 167.484375 -34.574219 C 167.59375 -36.859375 167.652344 -39.140625 167.652344 -41.429688 C 167.652344 -43.714844 167.59375 -46 167.484375 -48.28125 C 167.371094 -50.566406 167.203125 -52.84375 166.976562 -55.121094 C 166.753906 -57.394531 166.472656 -59.664062 166.140625 -61.925781 C 165.804688 -64.1875 165.414062 -66.4375 164.96875 -68.679688 C 164.519531 -70.921875 164.019531 -73.152344 163.464844 -75.371094 C 162.910156 -77.589844 162.300781 -79.789062 161.636719 -81.976562 C 160.972656 -84.167969 160.253906 -86.335938 159.484375 -88.488281 C 158.714844 -90.640625 157.890625 -92.773438 157.019531 -94.886719 C 156.144531 -96.996094 155.214844 -99.085938 154.238281 -101.152344 C 153.261719 -103.21875 152.234375 -105.261719 151.15625 -107.277344 C 150.078125 -109.292969 148.953125 -111.28125 147.777344 -113.242188 C 146.601562 -115.203125 145.378906 -117.136719 144.109375 -119.035156 C 142.839844 -120.9375 141.523438 -122.804688 140.160156 -124.640625 C 138.800781 -126.476562 137.394531 -128.28125 135.941406 -130.046875 C 134.492188 -131.8125 133 -133.542969 131.464844 -135.238281 C 129.929688 -136.933594 128.351562 -138.585938 126.738281 -140.203125 C 125.121094 -141.820312 123.464844 -143.398438 121.769531 -144.933594 C 120.078125 -146.46875 118.347656 -147.960938 116.578125 -149.410156 C 114.8125 -150.859375 113.011719 -152.265625 111.175781 -153.628906 C 109.335938 -154.992188 107.46875 -156.304688 105.570312 -157.578125 C 103.667969 -158.847656 101.738281 -160.070312 99.777344 -161.246094 C 97.816406 -162.421875 95.828125 -163.546875 93.808594 -164.625 C 91.792969 -165.703125 89.753906 -166.730469 87.6875 -167.707031 C 85.621094 -168.683594 83.53125 -169.609375 81.417969 -170.484375 C 79.304688 -171.359375 77.171875 -172.183594 75.019531 -172.953125 C 72.867188 -173.722656 70.699219 -174.441406 68.511719 -175.105469 C 66.324219 -175.765625 64.121094 -176.375 61.902344 -176.933594 C 59.683594 -177.488281 57.457031 -177.988281 55.210938 -178.433594 C 52.96875 -178.878906 50.71875 -179.269531 48.457031 -179.605469 C 46.195312 -179.941406 43.929688 -180.222656 41.652344 -180.445312 C 39.378906 -180.671875 37.097656 -180.839844 34.816406 -180.949219 C 32.53125 -181.0625 30.246094 -181.117188 27.960938 -181.117188 Z M 27.960938 -181.117188 "/>
</g>
</g>
</defs>
<g id="surface1">
<path style=" stroke:none;fill-rule:nonzero;fill:rgb(15.689087%,15.689087%,15.689087%);fill-opacity:1;" d="M 178 58.808594 C 175.714844 58.808594 173.429688 58.863281 171.148438 58.976562 C 168.863281 59.089844 166.585938 59.257812 164.308594 59.480469 C 162.035156 59.703125 159.765625 59.984375 157.503906 60.320312 C 155.242188 60.65625 152.992188 61.046875 150.75 61.492188 C 148.507812 61.9375 146.277344 62.4375 144.058594 62.992188 C 141.84375 63.550781 139.640625 64.160156 137.453125 64.824219 C 135.265625 65.484375 133.09375 66.203125 130.941406 66.972656 C 128.789062 67.742188 126.65625 68.566406 124.542969 69.441406 C 122.433594 70.316406 120.34375 71.242188 118.277344 72.21875 C 116.210938 73.195312 114.167969 74.222656 112.152344 75.300781 C 110.136719 76.378906 108.148438 77.507812 106.1875 78.679688 C 104.226562 79.855469 102.292969 81.078125 100.394531 82.351562 C 98.492188 83.621094 96.625 84.9375 94.789062 86.296875 C 92.953125 87.660156 91.148438 89.066406 89.382812 90.515625 C 87.617188 91.964844 85.886719 93.457031 84.191406 94.996094 C 82.496094 96.53125 80.84375 98.105469 79.226562 99.722656 C 77.609375 101.339844 76.03125 102.992188 74.496094 104.6875 C 72.960938 106.382812 71.46875 108.113281 70.019531 109.878906 C 68.570312 111.648438 67.164062 113.449219 65.800781 115.285156 C 64.4375 117.121094 63.125 118.988281 61.851562 120.890625 C 60.582031 122.789062 59.359375 124.722656 58.183594 126.683594 C 57.011719 128.644531 55.882812 130.632812 54.804688 132.648438 C 53.726562 134.664062 52.699219 136.707031 51.722656 138.773438 C 50.746094 140.839844 49.820312 142.929688 48.945312 145.039062 C 48.070312 147.152344 47.246094 149.285156 46.476562 151.4375 C 45.707031 153.589844 44.988281 155.761719 44.328125 157.949219 C 43.664062 160.136719 43.054688 162.339844 42.496094 164.554688 C 41.941406 166.773438 41.441406 169.003906 40.996094 171.246094 C 40.550781 173.488281 40.160156 175.738281 39.824219 178 C 39.488281 180.261719 39.207031 182.53125 38.984375 184.804688 C 38.757812 187.082031 38.589844 189.359375 38.480469 191.644531 C 38.367188 193.925781 38.3125 196.210938 38.3125 198.496094 C 38.3125 200.785156 38.367188 203.070312 38.480469 205.351562 C 38.589844 207.636719 38.757812 209.914062 38.984375 212.191406 C 39.207031 214.464844 39.488281 216.734375 39.824219 218.996094 C 40.160156 221.257812 40.550781 223.507812 40.996094 225.75 C 41.441406 227.992188 41.941406 230.222656 42.496094 232.441406 C 43.054688 234.65625 43.664062 236.859375 44.328125 239.046875 C 44.988281 241.234375 45.707031 243.40625 46.476562 245.558594 C 47.246094 247.710938 48.070312 249.84375 48.945312 251.957031 C 49.820312 254.066406 50.746094 256.15625 51.722656 258.222656 C 52.699219 260.289062 53.726562 262.332031 54.804688 264.347656 C 55.882812 266.363281 57.011719 268.351562 58.183594 270.3125 C 59.359375 272.273438 60.582031 274.203125 61.851562 276.105469 C 63.125 278.007812 64.4375 279.875 65.800781 281.710938 C 67.164062 283.546875 68.570312 285.347656 70.019531 287.117188 C 71.46875 288.882812 72.960938 290.613281 74.496094 292.308594 C 76.03125 294.003906 77.609375 295.65625 79.226562 297.273438 C 80.84375 298.890625 82.496094 300.464844 84.191406 302 C 85.886719 303.535156 87.617188 305.03125 89.382812 306.480469 C 91.148438 307.929688 92.953125 309.335938 94.789062 310.699219 C 96.625 312.058594 98.492188 313.375 100.394531 314.644531 C 102.292969 315.917969 104.226562 317.140625 106.1875 318.3125 C 108.148438 319.488281 110.136719 320.617188 112.152344 321.695312 C 114.167969 322.773438 116.210938 323.800781 118.277344 324.777344 C 120.34375 325.753906 122.433594 326.679688 124.542969 327.554688 C 126.65625 328.429688 128.789062 329.253906 130.941406 330.023438 C 133.09375 330.792969 135.265625 331.507812 137.453125 332.171875 C 139.640625 332.835938 141.84375 333.445312 144.058594 334.003906 C 146.277344 334.558594 148.507812 335.058594 150.75 335.503906 C 152.992188 335.949219 155.242188 336.339844 157.503906 336.675781 C 159.765625 337.011719 162.035156 337.292969 164.308594 337.515625 C 166.585938 337.738281 168.863281 337.90625 171.148438 338.019531 C 173.429688 338.132812 175.714844 338.1875 178 338.1875 C 180.289062 338.1875 182.574219 338.132812 184.855469 338.019531 C 187.140625 337.90625 189.417969 337.738281 191.695312 337.515625 C 193.96875 337.292969 196.238281 337.011719 198.5 336.675781 C 200.761719 336.339844 203.011719 335.949219 205.253906 335.503906 C 207.496094 335.058594 209.726562 334.558594 211.945312 334.003906 C 214.160156 333.445312 216.363281 332.835938 218.550781 332.171875 C 220.738281 331.507812 222.910156 330.792969 225.0625 330.023438 C 227.214844 329.253906 229.347656 328.429688 231.457031 327.554688 C 233.570312 326.679688 235.660156 325.753906 237.726562 324.777344 C 239.792969 323.800781 241.835938 322.773438 243.851562 321.695312 C 245.867188 320.617188 247.855469 319.488281 249.816406 318.3125 C 251.777344 317.140625 253.707031 315.917969 255.609375 314.644531 C 257.511719 313.375 259.378906 312.058594 261.214844 310.699219 C 263.050781 309.335938 264.851562 307.929688 266.621094 306.480469 C 268.386719 305.03125 270.117188 303.535156 271.8125 302 C 273.503906 300.464844 275.160156 298.890625 276.777344 297.273438 C 278.394531 295.65625 279.96875 294.003906 281.503906 292.308594 C 283.039062 290.613281 284.535156 288.882812 285.984375 287.117188 C 287.433594 285.347656 288.839844 283.546875 290.203125 281.710938 C 291.5625 279.875 292.878906 278.007812 294.148438 276.105469 C 295.421875 274.203125 296.644531 272.273438 297.816406 270.3125 C 298.992188 268.351562 300.121094 266.363281 301.199219 264.347656 C 302.273438 262.332031 303.304688 260.289062 304.28125 258.222656 C 305.257812 256.15625 306.183594 254.066406 307.058594 251.957031 C 307.933594 249.84375 308.757812 247.710938 309.527344 245.558594 C 310.296875 243.40625 311.011719 241.234375 311.675781 239.046875 C 312.339844 236.859375 312.949219 234.65625 313.503906 232.441406 C 314.0625 230.222656 314.5625 227.992188 315.007812 225.75 C 315.453125 223.507812 315.84375 221.257812 316.179688 218.996094 C 316.515625 216.734375 316.796875 214.464844 317.019531 212.191406 C 317.242188 209.914062 317.410156 207.636719 317.523438 205.351562 C 317.636719 203.070312 317.691406 200.785156 317.691406 198.496094 C 317.691406 196.210938 317.636719 193.925781 317.523438 191.644531 C 317.410156 189.359375 317.242188 187.082031 317.019531 184.804688 C 316.796875 182.53125 316.515625 180.261719 316.179688 178 C 315.84375 175.738281 315.453125 173.488281 315.007812 171.246094 C 314.5625 169.003906 314.0625 166.773438 313.503906 164.554688 C 312.949219 162.339844 312.339844 160.136719 311.675781 157.949219 C 311.011719 155.761719 310.296875 153.589844 309.527344 151.4375 C 308.757812 149.285156 307.933594 147.152344 307.058594 145.039062 C 306.183594 142.929688 305.257812 140.839844 304.28125 138.773438 C 303.304688 136.707031 302.273438 134.664062 301.199219 132.648438 C 300.121094 130.632812 298.992188 128.644531 297.816406 126.683594 C 296.644531 124.722656 295.421875 122.789062 294.148438 120.890625 C 292.878906 118.988281 291.5625 117.121094 290.203125 115.285156 C 288.839844 113.449219 287.433594 111.648438 285.984375 109.878906 C 284.535156 108.113281 283.039062 106.382812 281.503906 104.6875 C 279.96875 102.992188 278.394531 101.339844 276.777344 99.722656 C 275.160156 98.105469 273.503906 96.53125 271.8125 94.996094 C 270.117188 93.457031 268.386719 91.964844 266.621094 90.515625 C 264.851562 89.066406 263.050781 87.660156 261.214844 86.296875 C 259.378906 84.9375 257.511719 83.621094 255.609375 82.351562 C 253.707031 81.078125 251.777344 79.855469 249.816406 78.679688 C 247.855469 77.507812 245.867188 76.378906 243.851562 75.300781 C 241.835938 74.222656 239.792969 73.195312 237.726562 72.21875 C 235.660156 71.242188 233.570312 70.316406 231.457031 69.441406 C 229.347656 68.566406 227.214844 67.742188 225.0625 66.972656 C 222.910156 66.203125 220.738281 65.484375 218.550781 64.824219 C 216.363281 64.160156 214.160156 63.550781 211.945312 62.992188 C 209.726562 62.4375 207.496094 61.9375 205.253906 61.492188 C 203.011719 61.046875 200.761719 60.65625 198.5 60.320312 C 196.238281 59.984375 193.96875 59.703125 191.695312 59.480469 C 189.417969 59.257812 187.140625 59.089844 184.855469 58.976562 C 182.574219 58.863281 180.289062 58.808594 178 58.808594 Z M 178 58.808594 "/>
<use xlink:href="#surface5" transform="matrix(1,0,0,1,0,135)" mask="url(#mask0)"/>
<use xlink:href="#surface8" transform="matrix(1,0,0,1,167,0)" mask="url(#mask1)"/>
<path style=" stroke:none;fill-rule:nonzero;fill:rgb(99.609375%,99.609375%,99.609375%);fill-opacity:1;" d="M 177.863281 371.117188 C 131.621094 371.117188 88.082031 353.121094 55.40625 320.378906 C 22.664062 287.707031 4.667969 244.164062 4.667969 197.921875 C 4.667969 151.683594 22.664062 108.140625 55.40625 75.46875 C 88.082031 42.726562 131.621094 24.726562 177.863281 24.726562 C 224.105469 24.726562 267.644531 42.726562 300.316406 75.46875 C 333.058594 108.210938 351.058594 151.683594 351.058594 197.921875 C 351.058594 244.164062 333.058594 287.707031 300.316406 320.378906 C 267.644531 353.121094 224.105469 371.117188 177.863281 371.117188 Z M 177.863281 35.113281 C 134.390625 35.113281 93.480469 52.070312 62.746094 82.804688 C 32.011719 113.542969 15.050781 154.453125 15.050781 197.921875 C 15.050781 241.394531 32.011719 282.304688 62.746094 313.039062 C 93.480469 343.777344 134.390625 360.734375 177.863281 360.734375 C 221.335938 360.734375 262.246094 343.777344 292.980469 313.039062 C 323.714844 282.304688 340.675781 241.394531 340.675781 197.921875 C 340.675781 154.453125 323.714844 113.542969 292.980469 82.804688 C 262.246094 52.070312 221.335938 35.113281 177.863281 35.113281 Z M 177.863281 35.113281 "/>
<use xlink:href="#surface11" transform="matrix(1,0,0,1,251,252)" mask="url(#mask2)"/>
<path style=" stroke:none;fill-rule:nonzero;fill:rgb(99.609375%,99.609375%,99.609375%);fill-opacity:1;" d="M 177.855469 382.4375 C 128.707031 382.4375 82.425781 363.304688 47.699219 328.503906 C 12.898438 293.777344 -6.230469 247.5 -6.230469 198.351562 C -6.230469 149.203125 12.898438 102.921875 47.699219 68.195312 C 82.425781 33.394531 128.707031 14.265625 177.855469 14.265625 C 227.003906 14.265625 273.28125 33.394531 308.007812 68.195312 C 342.808594 102.996094 361.9375 149.203125 361.9375 198.351562 C 361.9375 247.5 342.808594 293.777344 308.007812 328.503906 C 273.28125 363.304688 227.003906 382.4375 177.855469 382.4375 Z M 177.855469 25.300781 C 131.648438 25.300781 88.167969 43.328125 55.5 75.996094 C 22.832031 108.664062 4.804688 152.144531 4.804688 198.351562 C 4.804688 244.554688 22.832031 288.039062 55.5 320.707031 C 88.167969 353.375 131.648438 371.398438 177.855469 371.398438 C 224.058594 371.398438 267.542969 353.375 300.210938 320.707031 C 332.878906 288.039062 350.902344 244.554688 350.902344 198.351562 C 350.902344 152.144531 332.878906 108.664062 300.210938 75.996094 C 267.542969 43.328125 224.058594 25.300781 177.855469 25.300781 Z M 177.855469 25.300781 "/>
<use xlink:href="#surface14" transform="matrix(1,0,0,1,0,0)" mask="url(#mask3)"/>
<path style=" stroke:none;fill-rule:nonzero;fill:rgb(99.609375%,99.609375%,99.609375%);fill-opacity:1;" d="M 177.851562 391.90625 C 127.4375 391.90625 79.96875 372.285156 44.347656 336.585938 C 8.652344 300.964844 -10.96875 253.496094 -10.96875 203.085938 C -10.96875 152.671875 8.652344 105.203125 44.347656 69.582031 C 79.96875 33.886719 127.4375 14.265625 177.851562 14.265625 C 228.261719 14.265625 275.730469 33.886719 311.351562 69.582031 C 347.046875 105.28125 366.671875 152.671875 366.671875 203.085938 C 366.671875 253.496094 347.046875 300.964844 311.351562 336.585938 C 275.730469 372.285156 228.261719 391.90625 177.851562 391.90625 Z M 177.851562 25.585938 C 130.457031 25.585938 85.855469 44.074219 52.347656 77.582031 C 18.839844 111.089844 0.351562 155.691406 0.351562 203.085938 C 0.351562 250.480469 18.839844 295.082031 52.347656 328.585938 C 85.855469 362.09375 130.457031 380.585938 177.851562 380.585938 C 225.242188 380.585938 269.84375 362.09375 303.351562 328.585938 C 336.859375 295.082031 355.351562 250.480469 355.351562 203.085938 C 355.351562 155.691406 336.859375 111.089844 303.351562 77.582031 C 269.84375 44.074219 225.242188 25.585938 177.851562 25.585938 Z M 177.851562 25.585938 "/>
<path style=" stroke:none;fill-rule:nonzero;fill:rgb(99.609375%,99.609375%,99.609375%);fill-opacity:1;" d="M 0 0 L 0 375 L 375 375 L 375 0 Z M 365.742188 365.742188 L 9.0625 365.742188 L 9.0625 9.0625 L 365.742188 9.0625 Z M 365.742188 365.742188 "/>
</g>
</svg>
